<svg xmlns="http://www.w3.org/2000/svg" version="1.1" xmlns:xlink="http://www.w3.org/1999/xlink" xmlns:svgjs="http://svgjs.dev/svgjs" width="1000" height="225" viewBox="0 0 1000 225"><g transform="matrix(1,0,0,1,-0.5028536907843204,-0.5048552556818038)"><svg viewBox="0 0 391 88" data-background-color="#ffffff" preserveAspectRatio="xMidYMid meet" height="225" width="1000" xmlns="http://www.w3.org/2000/svg" xmlns:xlink="http://www.w3.org/1999/xlink"><g id="tight-bounds" transform="matrix(1,0,0,1,0.19661579309666877,0.1974544999999921)"><svg viewBox="0 0 390.60676841380666 87.605091" height="87.605091" width="390.60676841380666"><g><svg viewBox="0 0 390.60676841380666 87.605091" height="87.605091" width="390.60676841380666"><g><svg viewBox="0 0 390.60676841380666 87.605091" height="87.605091" width="390.60676841380666"><g id="textblocktransform"><svg viewBox="0 0 390.60676841380666 87.605091" height="87.605091" width="390.60676841380666" id="textblock"><g><svg viewBox="0 0 390.60676841380666 47.25000000000001" height="47.25000000000001" width="390.60676841380666"><g><svg><g></g><g></g></svg></g><g><svg><g></g><g><svg></svg></g></svg></g><g id="text-0"><svg viewBox="0 0 390.60676841380666 47.25000000000001" height="47.25000000000001" width="390.60676841380666"><g><svg xmlns="http://www.w3.org/2000/svg" xmlns:xlink="http://www.w3.org/1999/xlink" version="1.1" x="0" y="0" viewBox="0.021999999999999797 27.720999999999997 99.95299999999999 40.67600000000001" style="enable-background:new 0 0 100 100;" xml:space="preserve" height="47.25000000000001" width="116.10726841380664" class="icon-_$-0" data-fill-palette-color="accent" id="_$-0"><path d="M99.975 59.486c0 1.768-1.429 3.198-3.196 3.198H58.779c-0.901 0-1.714-0.371-2.296-0.975l-25.08-25.901L5.478 61.748c-0.58 0.58-1.378 0.937-2.261 0.937-1.766 0-3.195-1.431-3.195-3.198 0-0.883 0.358-1.682 0.935-2.259L29.18 28.989c0.579-0.577 1.379-0.937 2.261-0.937 0.901 0 1.715 0.373 2.295 0.973l7.348 7.592h19.7v-8.896h8.479v8.896H79.55c0.957 0 1.818 0.423 2.405 1.089l17.229 19.673C99.677 57.943 99.975 58.683 99.975 59.486zM22.589 58.375h6.974v-6.978h-6.974V58.375zM33.104 58.375h6.973v-6.978h-6.973V58.375zM22.589 68.361h6.974v-6.978h-6.974V68.361zM33.104 68.397h6.973v-6.979h-6.973V68.397z" fill="#0a447a" data-fill-palette-color="accent"></path></svg></g><g transform="matrix(1,0,0,1,134.15676841380665,3.552713678800501e-15)"><svg width="256.45" viewBox="5.4 -36.5 256.43 47.25" height="47.25" data-palette-color="#dcabfb"><path d="M26-33L31.25-33 16.85-18.25 16.25-17.6 7.4-8.55 7.4-13.95 26-33ZM5.4-33L9.4-33 9.4 0 5.4 0 5.4-33ZM13.95-18.55L17.25-20.8 31.4 0 26.6 0 13.95-18.55ZM39.45-29.8L39.45-29.8Q38.1-29.8 37.27-30.63 36.45-31.45 36.45-32.8L36.45-32.8Q36.45-34.15 37.27-34.98 38.1-35.8 39.45-35.8L39.45-35.8Q40.8-35.8 41.62-34.98 42.45-34.15 42.45-32.8L42.45-32.8Q42.45-31.45 41.62-30.63 40.8-29.8 39.45-29.8ZM37.45-25L41.45-25 41.45 0 37.45 0 37.45-25ZM54.75 0L50.75 0 50.75-25 54-25 54.55-20.9Q55.6-23.2 57.62-24.35 59.65-25.5 62.55-25.5L62.55-25.5Q63.2-25.5 63.97-25.4 64.75-25.3 65.3-25L65.3-25 64.6-21.35Q64.05-21.55 63.4-21.65 62.75-21.75 61.55-21.75L61.55-21.75Q60-21.75 58.42-20.85 56.85-19.95 55.8-18.13 54.75-16.3 54.75-13.5L54.75-13.5 54.75 0ZM85.74-9.25L85.74-16.15Q85.74-18.95 84.24-20.48 82.74-22 79.99-22L79.99-22Q77.39-22 75.59-20.88 73.79-19.75 72.94-17.25L72.94-17.25 69.69-19.25Q70.69-22.05 73.39-23.78 76.09-25.5 80.09-25.5L80.09-25.5Q82.79-25.5 84.99-24.58 87.19-23.65 88.47-21.78 89.74-19.9 89.74-16.95L89.74-16.95 89.74-4.85Q89.74-3.05 91.64-3.05L91.64-3.05Q92.59-3.05 93.49-3.3L93.49-3.3 93.29-0.15Q92.29 0.35 90.69 0.35L90.69 0.35Q89.24 0.35 88.09-0.2 86.94-0.75 86.29-1.88 85.64-3 85.64-4.7L85.64-4.7 85.64-5.2 86.64-5.05Q86.04-3.1 84.59-1.88 83.14-0.65 81.34-0.08 79.54 0.5 77.79 0.5L77.79 0.5Q75.59 0.5 73.69-0.25 71.79-1 70.67-2.53 69.54-4.05 69.54-6.3L69.54-6.3Q69.54-9.1 71.42-10.93 73.29-12.75 76.64-13.4L76.64-13.4 86.54-15.35 86.54-12.05 78.49-10.4Q76.04-9.9 74.84-9 73.64-8.1 73.64-6.5L73.64-6.5Q73.64-4.95 74.87-3.98 76.09-3 78.34-3L78.34-3Q79.79-3 81.12-3.38 82.44-3.75 83.49-4.53 84.54-5.3 85.14-6.48 85.74-7.65 85.74-9.25L85.74-9.25ZM115.69-25L119.99-25 108.24 4.2Q107.29 6.65 106.17 8.08 105.04 9.5 103.67 10.13 102.29 10.75 100.49 10.75L100.49 10.75Q98.79 10.75 97.37 10.28 95.94 9.8 94.84 9L94.84 9 95.94 5.5Q96.94 6.4 98.07 6.83 99.19 7.25 100.29 7.25L100.29 7.25Q101.59 7.25 102.74 6.45 103.89 5.65 104.84 3.2L104.84 3.2 106.14-0.05 103.64-6 95.69-25 100.24-25 106.49-8.7 108.04-4.25 109.84-9.2 115.69-25ZM135.69 0.5L135.69 0.5Q132.14 0.5 129.36-1.05 126.59-2.6 125.04-5.53 123.49-8.45 123.49-12.5L123.49-12.5Q123.49-16.55 125.04-19.48 126.59-22.4 129.29-23.95 131.99-25.5 135.44-25.5L135.44-25.5Q138.94-25.5 141.41-24 143.89-22.5 145.19-19.93 146.49-17.35 146.49-14.15L146.49-14.15Q146.49-13.3 146.44-12.6 146.39-11.9 146.29-11.35L146.29-11.35 126.09-11.35 126.09-14.9 144.54-14.9 142.49-14.5Q142.49-18.1 140.51-20.05 138.54-22 135.34-22L135.34-22Q132.89-22 131.11-20.88 129.34-19.75 128.36-17.63 127.39-15.5 127.39-12.5L127.39-12.5Q127.39-9.55 128.39-7.4 129.39-5.25 131.21-4.13 133.04-3 135.59-3L135.59-3Q138.34-3 140.06-4.05 141.79-5.1 142.84-6.9L142.84-6.9 145.99-5.05Q145.04-3.35 143.56-2.1 142.09-0.85 140.11-0.18 138.14 0.5 135.69 0.5ZM179.14-4.65L185.44-25 189.89-25 181.19 0 177.19 0 170.14-19.9 163.49 0 159.49 0 150.79-25 155.24-25 161.54-4.65 168.34-25 172.34-25 179.14-4.65ZM210.48-9.25L210.48-16.15Q210.48-18.95 208.98-20.48 207.48-22 204.73-22L204.73-22Q202.13-22 200.33-20.88 198.53-19.75 197.68-17.25L197.68-17.25 194.43-19.25Q195.43-22.05 198.13-23.78 200.83-25.5 204.83-25.5L204.83-25.5Q207.53-25.5 209.73-24.58 211.93-23.65 213.21-21.78 214.48-19.9 214.48-16.95L214.48-16.95 214.48-4.85Q214.48-3.05 216.38-3.05L216.38-3.05Q217.33-3.05 218.23-3.3L218.23-3.3 218.03-0.15Q217.03 0.35 215.43 0.35L215.43 0.35Q213.98 0.35 212.83-0.2 211.68-0.75 211.03-1.88 210.38-3 210.38-4.7L210.38-4.7 210.38-5.2 211.38-5.05Q210.78-3.1 209.33-1.88 207.88-0.65 206.08-0.08 204.28 0.5 202.53 0.5L202.53 0.5Q200.33 0.5 198.43-0.25 196.53-1 195.41-2.53 194.28-4.05 194.28-6.3L194.28-6.3Q194.28-9.1 196.16-10.93 198.03-12.75 201.38-13.4L201.38-13.4 211.28-15.35 211.28-12.05 203.23-10.4Q200.78-9.9 199.58-9 198.38-8.1 198.38-6.5L198.38-6.5Q198.38-4.95 199.61-3.98 200.83-3 203.08-3L203.08-3Q204.53-3 205.86-3.38 207.18-3.75 208.23-4.53 209.28-5.3 209.88-6.48 210.48-7.65 210.48-9.25L210.48-9.25ZM223.98-36.5L227.98-36.5 227.98-6.35Q227.98-4.45 228.68-3.73 229.38-3 230.93-3L230.93-3Q231.93-3 232.58-3.15 233.23-3.3 234.33-3.7L234.33-3.7 233.68-0.2Q232.88 0.15 231.93 0.33 230.98 0.5 229.98 0.5L229.98 0.5Q226.93 0.5 225.46-1.15 223.98-2.8 223.98-6.2L223.98-6.2 223.98-36.5ZM254.08-9.25L254.08-16.15Q254.08-18.95 252.58-20.48 251.08-22 248.33-22L248.33-22Q245.73-22 243.93-20.88 242.13-19.75 241.28-17.25L241.28-17.25 238.03-19.25Q239.03-22.05 241.73-23.78 244.43-25.5 248.43-25.5L248.43-25.5Q251.13-25.5 253.33-24.58 255.53-23.65 256.8-21.78 258.08-19.9 258.08-16.95L258.08-16.95 258.08-4.85Q258.08-3.05 259.98-3.05L259.98-3.05Q260.93-3.05 261.83-3.3L261.83-3.3 261.63-0.15Q260.63 0.35 259.03 0.35L259.03 0.35Q257.58 0.35 256.43-0.2 255.28-0.75 254.63-1.88 253.98-3 253.98-4.7L253.98-4.7 253.98-5.2 254.98-5.05Q254.38-3.1 252.93-1.88 251.48-0.65 249.68-0.08 247.88 0.5 246.13 0.5L246.13 0.5Q243.93 0.5 242.03-0.25 240.13-1 239-2.53 237.88-4.05 237.88-6.3L237.88-6.3Q237.88-9.1 239.75-10.93 241.63-12.75 244.98-13.4L244.98-13.4 254.88-15.35 254.88-12.05 246.83-10.4Q244.38-9.9 243.18-9 241.98-8.1 241.98-6.5L241.98-6.5Q241.98-4.95 243.2-3.98 244.43-3 246.68-3L246.68-3Q248.13-3 249.45-3.38 250.78-3.75 251.83-4.53 252.88-5.3 253.48-6.48 254.08-7.65 254.08-9.25L254.08-9.25Z" opacity="1" transform="matrix(1,0,0,1,0,0)" fill="#dcabfb" class="undefined-text-0" data-fill-palette-color="primary"></path></svg></g></svg></g></svg></g><g transform="matrix(1,0,0,1,194.14580441380667,58.40459100000001)"><svg viewBox="0 0 196.460964 29.200499999999995" height="29.200499999999995" width="196.460964"><g transform="matrix(1,0,0,1,0,0)"><svg width="196.460964" viewBox="3.25 -37.5 336.36 50" height="29.200499999999995" data-palette-color="#abcafb"><path d="M27.7-32.35L26.4-30.1Q25.1-31.4 21.7-32.05L21.7-32.05Q20.45-32.3 18.45-32.3 16.45-32.3 14.23-31.35 12-30.4 10.3-28.4L10.3-28.4Q6.65-24 6.65-16 6.65-8 10.3-4.8L10.3-4.8Q12.8-2.55 16.93-2.55 21.05-2.55 24.85-3.6L24.85-3.6 25.1-15.5 27.85-15.5 27.85-2Q25.65-0.6 19.9 0L19.9 0Q18.3 0.2 16.53 0.2 14.75 0.2 12.35-0.38 9.95-0.95 7.9-2.7L7.9-2.7Q3.25-6.65 3.25-15.85 3.25-25.05 7.65-30.08 12.05-35.1 19-35.1L19-35.1 20.6-35Q23.75-34.7 25.43-33.85 27.1-33 27.7-32.35L27.7-32.35ZM35-25L38.25-25.25 38.25 0 35 0 35-25ZM36.5-31.7Q35.5-31.7 34.97-32.35 34.45-33 34.45-34 34.45-35 35.02-35.63 35.6-36.25 36.6-36.25 37.6-36.25 38.22-35.63 38.85-35 38.85-33.9 38.85-32.8 38.17-32.25 37.5-31.7 36.5-31.7ZM52.4 0L43.15-25 46.8-25.25 54.05-3.85 61.9-25 65.5-25.25 55.4 0 52.4 0ZM70.19-12.3L70.19-11.5Q70.19-2.7 78.59-2.7L78.59-2.7Q82.14-2.7 85.09-3.65L85.09-3.65Q85.84-3.9 86.14-4.05L86.14-4.05 86.89-1.4Q85.14-0.35 80.54 0.1L80.54 0.1Q79.24 0.2 77.79 0.2L77.79 0.2Q73.59 0.2 70.79-1.9L70.79-1.9Q66.94-4.75 66.94-11.4 66.94-18.05 70.42-21.63 73.89-25.2 78.84-25.2 83.79-25.2 86.29-22L86.29-22Q88.19-19.45 88.19-15.25L88.19-15.25Q88.19-14.25 88.09-13.15L88.09-13.15 70.24-13.15Q70.19-12.75 70.19-12.3L70.19-12.3ZM79.04-22.1L79.04-22.1Q75.94-22.1 73.74-20.23 71.54-18.35 70.69-15.4L70.69-15.4 85.24-15.4Q84.99-20.95 80.94-21.85L80.94-21.85Q80.04-22.1 79.04-22.1ZM107.99-24.5L107.19-21.7Q105.39-22.3 102.29-22.3 99.19-22.3 97.49-21.2 95.79-20.1 95.79-18.48 95.79-16.85 96.79-16.1 97.79-15.35 99.29-14.83 100.79-14.3 102.57-13.8 104.34-13.3 105.84-12.5L105.84-12.5Q109.34-10.7 109.34-7.15 109.34-3.6 106.92-1.7 104.49 0.2 99.84 0.2L99.84 0.2Q97.49 0.2 95.32-0.28 93.14-0.75 91.99-1.6L91.99-1.6 93.09-4.25Q94.24-3.25 97.74-2.8L97.74-2.8Q98.84-2.65 99.99-2.65L99.99-2.65Q102.59-2.65 104.34-3.73 106.09-4.8 106.09-7L106.09-7Q106.09-8.5 105.09-9.35 104.09-10.2 102.59-10.78 101.09-11.35 99.32-11.8 97.54-12.25 96.04-12.98 94.54-13.7 93.54-14.88 92.54-16.05 92.54-18.05L92.54-18.05Q92.54-21.3 95.04-23.25 97.54-25.2 101.74-25.2L101.74-25.2Q102.79-25.2 103.89-25.08 104.99-24.95 105.89-24.85L105.89-24.85 107.99-24.5ZM137.19 0L128.29-25 131.94-25.25 139.39-2.35 148.99-25 152.49-25 135.89 12.5 132.84 12.5 138.34 0 137.19 0ZM154.28-6.4L154.28-6.4Q153.38-8.8 153.38-12L153.38-12Q153.38-18.15 156.83-21.68 160.28-25.2 165.48-25.2L165.48-25.2Q173.63-25.2 176.18-18.6L176.18-18.6Q177.13-16.2 177.13-13L177.13-13Q177.13-6.85 173.68-3.33 170.23 0.2 165.03 0.2L165.03 0.2Q156.88 0.2 154.28-6.4ZM156.63-12.35Q156.63-7.75 159.01-5.23 161.38-2.7 165.13-2.7 168.88-2.7 171.38-5.38 173.88-8.05 173.88-12.65 173.88-17.25 171.53-19.78 169.18-22.3 165.41-22.3 161.63-22.3 159.13-19.63 156.63-16.95 156.63-12.35ZM187.33-3.2L187.33-3.2Q188.43-2.8 190.83-2.8 193.23-2.8 197.03-4.75L197.03-4.75 197.03-25 200.28-25.25 200.28 0 197.03 0 197.03-2.7Q193.33 0.15 189.48 0.15L189.48 0.15Q184.68 0.15 182.53-2.7L182.53-2.7Q181.43-4.1 181.43-6.6L181.43-6.6 181.43-25 184.68-25.25 184.68-7.45Q184.68-4.35 187.33-3.2ZM224.98-37.5L224.98-23Q227.93-25.45 231.68-25.45L231.68-25.45Q238.08-25.45 240.63-19.8L240.63-19.8Q241.63-17.5 241.63-13.85L241.63-13.85Q241.63-7.1 238.08-3.55 234.53 0 228.88 0L228.88 0Q225.58 0 223.85-0.45 222.13-0.9 221.73-1.15L221.73-1.15 221.73-37.25 224.98-37.5ZM224.98-21.25L224.98-21.25 224.98-2.8Q226.43-2.45 228.13-2.45L228.13-2.45Q233.13-2.45 235.75-5.35 238.38-8.25 238.38-13.5 238.38-18.75 235.73-21L235.73-21Q233.88-22.55 230.93-22.55 227.98-22.55 224.98-21.25ZM248.52-12.3L248.52-11.5Q248.52-2.7 256.92-2.7L256.92-2.7Q260.47-2.7 263.42-3.65L263.42-3.65Q264.17-3.9 264.47-4.05L264.47-4.05 265.22-1.4Q263.47-0.35 258.87 0.1L258.87 0.1Q257.57 0.2 256.12 0.2L256.12 0.2Q251.92 0.2 249.12-1.9L249.12-1.9Q245.27-4.75 245.27-11.4 245.27-18.05 248.75-21.63 252.22-25.2 257.17-25.2 262.12-25.2 264.62-22L264.62-22Q266.52-19.45 266.52-15.25L266.52-15.25Q266.52-14.25 266.42-13.15L266.42-13.15 248.57-13.15Q248.52-12.75 248.52-12.3L248.52-12.3ZM257.37-22.1L257.37-22.1Q254.27-22.1 252.07-20.23 249.87-18.35 249.02-15.4L249.02-15.4 263.57-15.4Q263.32-20.95 259.27-21.85L259.27-21.85Q258.37-22.1 257.37-22.1ZM281.32-3.6L281.92-0.9Q281.02 0 278.67 0L278.67 0Q275.37 0 274.22-1.7L274.22-1.7Q272.27-3.55 272.27-6.7L272.27-6.7 272.27-22.1 269.47-22.1 269.92-25 272.27-25 272.27-29.95 275.52-30.25 275.52-25 281.32-25 281.32-22.1 275.52-22.1 275.52-5.9Q275.52-3 278.52-3L278.52-3Q279.82-3 281.32-3.6L281.32-3.6ZM296.42-3.6L297.02-0.9Q296.12 0 293.77 0L293.77 0Q290.47 0 289.32-1.7L289.32-1.7Q287.37-3.55 287.37-6.7L287.37-6.7 287.37-22.1 284.57-22.1 285.02-25 287.37-25 287.37-29.95 290.62-30.25 290.62-25 296.42-25 296.42-22.1 290.62-22.1 290.62-5.9Q290.62-3 293.62-3L293.62-3Q294.92-3 296.42-3.6L296.42-3.6ZM302.97-12.3L302.97-11.5Q302.97-2.7 311.37-2.7L311.37-2.7Q314.92-2.7 317.87-3.65L317.87-3.65Q318.62-3.9 318.92-4.05L318.92-4.05 319.67-1.4Q317.92-0.35 313.32 0.1L313.32 0.1Q312.02 0.2 310.57 0.2L310.57 0.2Q306.37 0.2 303.57-1.9L303.57-1.9Q299.72-4.75 299.72-11.4 299.72-18.05 303.19-21.63 306.67-25.2 311.62-25.2 316.57-25.2 319.07-22L319.07-22Q320.97-19.45 320.97-15.25L320.97-15.25Q320.97-14.25 320.87-13.15L320.87-13.15 303.02-13.15Q302.97-12.75 302.97-12.3L302.97-12.3ZM311.82-22.1L311.82-22.1Q308.72-22.1 306.52-20.23 304.32-18.35 303.47-15.4L303.47-15.4 318.02-15.4Q317.77-20.95 313.72-21.85L313.72-21.85Q312.82-22.1 311.82-22.1ZM339.61-24.5L338.31-21.5Q337.51-21.95 336.61-21.95 335.71-21.95 335.61-21.9L335.61-21.9Q333.71-21.9 331.79-20.53 329.86-19.15 328.51-17.45L328.51-17.45 328.51 0 325.26 0 325.26-25 328.51-25.25 328.51-19.65Q330.36-22 331.66-22.95L331.66-22.95Q334.06-24.75 336.26-24.85L336.26-24.85Q336.56-24.9 337.36-24.9 338.16-24.9 339.61-24.5L339.61-24.5Z" opacity="1" transform="matrix(1,0,0,1,0,0)" fill="#abcafb" class="undefined-text-1" data-fill-palette-color="secondary" id="text-1"></path></svg></g></svg></g></svg></g></svg></g></svg></g><defs></defs></svg><rect width="390.60676841380666" height="87.605091" fill="none" stroke="none" visibility="hidden"></rect></g></svg></g></svg>